<?xml version="1.0" standalone="no"?>
<!DOCTYPE svg PUBLIC "-//W3C//DTD SVG 20010904//EN"
 "http://www.w3.org/TR/2001/REC-SVG-20010904/DTD/svg10.dtd">
<svg version="1.0" xmlns="http://www.w3.org/2000/svg"
 width="464.000000pt" height="464.000000pt" viewBox="0 0 464.000000 464.000000"
 preserveAspectRatio="xMidYMid meet">
<metadata>
Created by potrace 1.11, written by Peter Selinger 2001-2013
</metadata>
<g transform="translate(0.000000,464.000000) scale(0.100000,-0.100000)"
fill="#000000" stroke="none">
<path d="M1445 4374 c-120 -88 -146 -107 -161 -121 -7 -7 -15 -13 -19 -13 -3
0 -60 -39 -125 -87 -65 -49 -128 -95 -140 -103 -12 -8 -68 -49 -125 -90 -56
-41 -113 -82 -125 -90 -13 -8 -35 -24 -49 -36 -14 -11 -65 -48 -114 -83 l-87
-62 0 -1741 c0 -1657 1 -1740 18 -1727 23 20 73 57 477 353 193 141 358 263
368 271 9 8 21 15 26 15 5 0 11 3 13 8 2 4 30 27 63 51 33 24 65 49 70 56 7 8
10 189 10 513 l0 501 60 37 c33 19 79 48 103 62 268 168 413 258 442 277 19
13 145 91 280 175 135 84 257 161 272 171 15 10 29 19 32 19 2 0 33 19 68 43
l63 42 -656 3 -656 2 1 810 c1 534 -2 810 -9 809 -5 0 -50 -29 -100 -65z"/>
<path d="M4065 4409 c-22 -17 -49 -38 -61 -47 -11 -9 -28 -21 -36 -27 -21 -13
-280 -201 -294 -214 -6 -5 -72 -53 -145 -107 -74 -54 -135 -101 -137 -106 -2
-4 -8 -8 -12 -8 -5 0 -47 -28 -93 -62 -45 -35 -94 -71 -107 -81 -93 -66 -108
-79 -111 -100 -2 -12 -4 -240 -3 -506 l1 -484 -83 -53 c-45 -30 -87 -54 -93
-54 -6 0 -11 -4 -11 -10 0 -5 -7 -10 -15 -10 -8 0 -15 -3 -15 -8 0 -4 -9 -12
-20 -17 -31 -16 -164 -99 -170 -106 -3 -3 -21 -14 -40 -24 -19 -10 -61 -35
-92 -56 -31 -22 -59 -39 -62 -39 -3 0 -57 -34 -121 -75 -63 -41 -120 -75 -125
-75 -6 0 -10 -3 -10 -8 0 -4 -9 -12 -20 -17 -40 -19 -429 -266 -435 -275 -4
-7 229 -10 648 -10 l655 0 0 -805 c0 -443 2 -808 5 -811 5 -5 55 22 67 36 3 3
70 52 149 109 79 56 149 107 155 112 6 5 52 38 101 74 50 35 99 72 110 80 11
9 32 24 48 33 15 9 27 20 27 24 0 4 4 8 10 8 5 0 31 16 57 36 67 50 84 62 211
154 l112 81 0 1739 c0 957 -1 1740 -2 1739 -2 0 -21 -14 -43 -30z"/>
</g>
</svg>
